<svg width="16" height="17" viewBox="0 0 16 17" fill="none" xmlns="http://www.w3.org/2000/svg">
<path d="M15.0469 12.6445L8.12109 16.0547C8.05078 16.1016 7.96875 16.125 7.875 16.125C7.78125 16.125 7.69922 16.1016 7.62891 16.0547L0.703125 12.6445C0.539062 12.5508 0.539062 12.457 0.703125 12.3633L2.35547 11.5547C2.44922 11.5078 2.53125 11.4844 2.60156 11.4844C2.69531 11.4844 2.78906 11.5078 2.88281 11.5547L7.62891 13.9102C7.69922 13.957 7.78125 13.9805 7.875 13.9805C7.96875 13.9805 8.05078 13.957 8.12109 13.9102L12.8672 11.5547C12.9609 11.5078 13.043 11.4844 13.1133 11.4844C13.207 11.4844 13.3008 11.5078 13.3945 11.5547L15.0469 12.3633C15.2109 12.457 15.2109 12.5508 15.0469 12.6445ZM15.0469 7.82812C15.2109 7.92188 15.2109 8.00391 15.0469 8.07422L8.12109 11.5195C8.05078 11.5664 7.96875 11.5898 7.875 11.5898C7.78125 11.5898 7.69922 11.5664 7.62891 11.5195L0.703125 8.07422C0.539062 8.00391 0.539062 7.92188 0.703125 7.82812L2.35547 7.01953C2.44922 6.97266 2.53125 6.94922 2.60156 6.94922C2.69531 6.94922 2.78906 6.97266 2.88281 7.01953L7.62891 9.375C7.69922 9.39844 7.78125 9.41016 7.875 9.41016C7.96875 9.41016 8.05078 9.39844 8.12109 9.375L12.8672 7.01953C12.9609 6.97266 13.043 6.94922 13.1133 6.94922C13.207 6.94922 13.3008 6.97266 13.3945 7.01953L15.0469 7.82812ZM0.703125 3.82031C0.539062 3.75 0.539062 3.67969 0.703125 3.60938L7.62891 0.410156C7.69922 0.386719 7.78125 0.375 7.875 0.375C7.96875 0.375 8.05078 0.386719 8.12109 0.410156L15.0469 3.60938C15.2109 3.67969 15.2109 3.75 15.0469 3.82031L8.12109 7.01953C8.05078 7.04297 7.96875 7.05469 7.875 7.05469C7.78125 7.05469 7.69922 7.04297 7.62891 7.01953L0.703125 3.82031Z" fill="#fff"/>
</svg>
