<svg width="32" height="32" viewBox="0 0 32 32" fill="none" xmlns="http://www.w3.org/2000/svg">
<mask id="mask0_821_4" style="mask-type:alpha" maskUnits="userSpaceOnUse" x="0" y="0" width="32" height="32">
<rect width="32" height="32" fill="#C4C4C4"/>
</mask>
<g mask="url(#mask0_821_4)">
<path d="M31.5571 17.1936L20.8899 27.7979C19.9375 28.7447 18.2866 28.0819 18.2866 26.7248V20.6652H9.65127C8.80679 20.6652 8.12739 19.9898 8.12739 19.1503V13.0907C8.12739 12.2512 8.80679 11.5758 9.65127 11.5758H18.2866V5.51624C18.2866 4.16546 19.9311 3.49638 20.8899 4.44319L31.5571 15.0475C32.1476 15.6408 32.1476 16.6003 31.5571 17.1936ZM12.1911 27.4823V24.9575C12.1911 24.5409 11.8482 24.2 11.4291 24.2H6.09554C4.97168 24.2 4.06369 23.2974 4.06369 22.1801V10.0609C4.06369 8.9437 4.97168 8.04108 6.09554 8.04108H11.4291C11.8482 8.04108 12.1911 7.70022 12.1911 7.28363V4.75879C12.1911 4.3422 11.8482 4.00134 11.4291 4.00134H6.09554C2.73029 4.00134 0 6.71554 0 10.0609V22.1801C0 25.5255 2.73029 28.2397 6.09554 28.2397H11.4291C11.8482 28.2397 12.1911 27.8989 12.1911 27.4823Z" fill="white"/>
</g>
</svg>
