<svg width="31" height="31" viewBox="0 0 31 31" fill="none"
  xmlns="http://www.w3.org/2000/svg">
  <path d="M29.9452 21.7987L23.3826 18.9861C23.1023 18.8666 22.7907 18.8415 22.4948 18.9144C22.1989 18.9873 21.9347 19.1544 21.742 19.3904L18.8357 22.9413C14.2745 20.7907 10.6038 17.12 8.45326 12.5589L12.0041 9.65256C12.2406 9.46018 12.408 9.19597 12.481 8.89994C12.554 8.6039 12.5285 8.29216 12.4084 8.0119L9.59586 1.44929C9.46408 1.14718 9.23103 0.900516 8.93687 0.751834C8.64271 0.603152 8.3059 0.561769 7.9845 0.634821L1.89064 2.0411C1.58078 2.11265 1.30431 2.28712 1.10637 2.53604C0.908435 2.78495 0.80071 3.09361 0.800781 3.41163C0.800781 18.4412 12.9826 30.5996 27.9888 30.5996C28.3069 30.5998 28.6157 30.4921 28.8647 30.2942C29.1137 30.0962 29.2883 29.8197 29.3599 29.5097L30.7661 23.4159C30.8387 23.0929 30.7965 22.7548 30.6466 22.4596C30.4968 22.1644 30.2488 21.9307 29.9452 21.7987Z" fill="white"/>
</svg>
