<svg width="110" height="110" viewBox="0 0 110 110" fill="none" xmlns="http://www.w3.org/2000/svg">
<path d="M47.6186 14.8535C29.6299 14.8535 15 29.6266 15 47.7525C15 65.9582 29.6299 80.6499 47.6186 80.6499C55.8534 80.6499 63.369 77.5351 69.1254 72.4248L70.9648 74.2619L69.2846 76.018C68.3252 76.9762 68.3252 78.494 69.2846 79.4521L83.6756 93.9842C84.1553 94.4632 84.7162 94.7031 85.3558 94.7031C85.9954 94.7031 86.6347 94.4632 87.0344 93.9842L93.4304 87.5166C94.3098 86.5584 94.3102 85.0419 93.3508 84.1636L78.9598 69.63C78.4801 69.1509 77.9192 68.9126 77.2796 68.9126C76.64 68.9126 76.0007 69.1509 75.601 69.63L73.9223 71.3877L72.0829 69.471C77.1197 63.6419 80.2387 56.0568 80.2387 47.7525C80.2387 29.6266 65.6073 14.8535 47.6186 14.8535ZM47.6186 19.724C62.9689 19.724 75.4417 32.3412 75.4417 47.832C75.4417 63.3228 62.9689 75.8589 47.6186 75.8589C32.2682 75.8589 19.797 63.3228 19.797 47.832C19.797 32.3412 32.2682 19.724 47.6186 19.724ZM47.6982 29.7052C40.103 29.7052 33.3079 34.5773 30.7495 41.7638C30.3497 42.8018 30.9091 44.0785 32.0284 44.3979C32.2682 44.4777 32.5084 44.5585 32.7482 44.5585C33.6277 44.5585 34.4272 43.9989 34.747 43.1206C36.6658 37.611 41.9418 33.8583 47.6982 33.8583C48.8175 33.8583 49.7781 32.9005 49.7781 31.7826C49.7781 30.6647 48.8175 29.7052 47.6982 29.7052ZM32.5077 49.429C31.3884 49.429 30.4294 50.307 30.4294 51.5048V51.8245C30.5093 52.9424 31.3897 53.9003 32.5889 53.9003C33.7082 53.9003 34.6673 52.9424 34.6673 51.8245V51.5843C34.6673 50.3866 33.7882 49.429 32.5889 49.429H32.5077ZM77.3608 74.7407L88.3929 85.9197L85.3558 88.9546L74.3221 77.7756L77.3608 74.7407Z" fill="white"/>
<rect width="110" height="110"/>
</svg>
