<svg width="80" height="76" viewBox="0 0 80 76" fill="none" xmlns="http://www.w3.org/2000/svg">
<path d="M32.6186 0.429688C14.6299 0.429688 0 14.3499 0 31.4294C0 48.584 14.6299 62.4276 32.6186 62.4276C40.8534 62.4276 48.369 59.4926 54.1254 54.6773L55.9648 56.4084L54.2846 58.0631C53.3252 58.966 53.3252 60.3961 54.2846 61.299L68.6756 74.992C69.1553 75.4435 69.7162 75.6695 70.3558 75.6695C70.9954 75.6695 71.6347 75.4435 72.0344 74.992L78.4304 68.8979C79.3098 67.995 79.3102 66.5661 78.3508 65.7384L63.9598 52.0439C63.4801 51.5925 62.9192 51.3679 62.2796 51.3679C61.64 51.3679 61.0007 51.5925 60.601 52.0439L58.9223 53.7001L57.0829 51.894C62.1197 46.4015 65.2387 39.2543 65.2387 31.4294C65.2387 14.3499 50.6073 0.429688 32.6186 0.429688ZM32.6186 5.01902C47.9689 5.01902 60.4417 16.9078 60.4417 31.5043C60.4417 46.1008 47.9689 57.9132 32.6186 57.9132C17.2682 57.9132 4.79698 46.1008 4.79698 31.5043C4.79698 16.9078 17.2682 5.01902 32.6186 5.01902ZM32.6982 14.424C25.103 14.424 18.3079 19.0148 15.7495 25.7864C15.3497 26.7645 15.9091 27.9675 17.0284 28.2684C17.2682 28.3437 17.5084 28.4198 17.7482 28.4198C18.6277 28.4198 19.4272 27.8925 19.747 27.0649C21.6658 21.8733 26.9418 18.3373 32.6982 18.3373C33.8175 18.3373 34.7781 17.4348 34.7781 16.3814C34.7781 15.328 33.8175 14.424 32.6982 14.424ZM17.5077 33.0091C16.3884 33.0091 15.4294 33.8365 15.4294 34.965V35.2663C15.5093 36.3197 16.3897 37.2222 17.5889 37.2222C18.7082 37.2222 19.6673 36.3197 19.6673 35.2663V35.04C19.6673 33.9114 18.7882 33.0091 17.5889 33.0091H17.5077ZM62.3608 56.8595L73.3929 67.3931L70.3558 70.2528L59.3221 59.7192L62.3608 56.8595Z" fill="#008F90"/>
</svg>
